<?xml version="1.0" encoding="UTF-8" standalone="no"?>
<!-- Uploaded to: SVG Repo, www.svgrepo.com, Generator: SVG Repo Mixer Tools -->

<svg
   width="533.33331"
   height="497.50003"
   viewBox="0 0 15.999999 14.925001"
   fill="none"
   version="1.1"
   id="svg1"
   sodipodi:docname="volume-high-svgrepo-baisser.svg"
   inkscape:version="1.4.4 (dcaf3e7d9e, 2026-05-05)"
   xmlns:inkscape="http://www.inkscape.org/namespaces/inkscape"
   xmlns:sodipodi="http://sodipodi.sourceforge.net/DTD/sodipodi-0.dtd"
   xmlns="http://www.w3.org/2000/svg"
   xmlns:svg="http://www.w3.org/2000/svg">
  <defs
     id="defs1" />
  <sodipodi:namedview
     id="namedview1"
     pagecolor="#ffffff"
     bordercolor="#000000"
     borderopacity="0.25"
     inkscape:showpageshadow="2"
     inkscape:pageopacity="0.0"
     inkscape:pagecheckerboard="0"
     inkscape:deskcolor="#d1d1d1"
     inkscape:zoom="0.9675"
     inkscape:cx="400"
     inkscape:cy="249.09561"
     inkscape:window-width="1680"
     inkscape:window-height="1018"
     inkscape:window-x="3360"
     inkscape:window-y="0"
     inkscape:window-maximized="1"
     inkscape:current-layer="svg1" />
  <path
     fill-rule="evenodd"
     clip-rule="evenodd"
     d="m 14.2426,3.4122553 c -0.3905,-0.39052 -1.0237,-0.39052 -1.4142,0 -0.3905,0.39053 -0.3905,1.02369 0,1.41422 1.5621,1.56213 1.5621,4.09473 0,5.6568297 -0.3905,0.3905 -0.3905,1.0237 0,1.4142 0.3905,0.3906 1.0237,0.3906 1.4142,0 2.3432,-2.3430997 2.3432,-6.1420997 0,-8.4852497 z M 11,1.5028153 C 11,0.24505527 9.5451,-0.45420473 8.56296,0.33151527 L 4.64922,3.4625053 H 3 c -1.65685,0 -3,1.34315 -3,3 v 2 c 0,1.6568997 1.34315,2.9999997 3,2.9999997 h 1.64922 l 3.91374,3.131 C 9.5451,15.379205 11,14.679905 11,13.422205 Z M 5.89861,5.0242453 9,2.5431253 V 12.381905 L 5.89861,9.9008053 c -0.35463,-0.2837 -0.79525,-0.4383 -1.24939,-0.4383 H 3 c -0.55228,0 -1,-0.4477 -1,-1 v -2 c 0,-0.5523 0.44772,-1 1,-1 h 1.64922 c 0.45414,0 0.89476,-0.15456 1.24939,-0.43826 z"
     fill="#000000"
     id="path1"
     sodipodi:nodetypes="cccscccsccssssccssccccssssssc" />
</svg>
